<?xml version="1.0" standalone="no"?>
<!DOCTYPE svg PUBLIC "-//W3C//DTD SVG 20010904//EN"
 "http://www.w3.org/TR/2001/REC-SVG-20010904/DTD/svg10.dtd">
<svg version="1.0" xmlns="http://www.w3.org/2000/svg"
 width="853.000000pt" height="1280.000000pt" viewBox="0 0 853.000000 1280.000000"
 preserveAspectRatio="xMidYMid meet">

<g transform="translate(0.000000,1280.000000) scale(0.100000,-0.100000)"
fill="#000000" stroke="none">
<path d="M0 6400 l0 -6400 4265 0 4265 0 0 6400 0 6400 -4265 0 -4265 0 0
-6400z m5104 4094 c3 -8 2 -12 -4 -9 -6 3 -10 10 -10 16 0 14 7 11 14 -7z
m-688 -119 c1 -14 -2 -25 -7 -25 -10 0 -12 33 -2 43 3 4 7 7 7 7 1 0 2 -11 2
-25z m239 5 c3 -5 1 -10 -4 -10 -6 0 -11 5 -11 10 0 6 2 10 4 10 3 0 8 -4 11
-10z m65 -40 c5 0 12 5 15 10 8 13 25 13 25 -1 0 -5 -4 -7 -10 -4 -5 3 -10 -1
-10 -9 0 -9 7 -16 15 -16 8 0 15 7 15 16 0 8 4 13 10 9 5 -3 7 -11 4 -19 -5
-14 35 -36 66 -36 10 0 21 -6 23 -12 3 -8 6 -6 6 5 1 9 -3 17 -9 17 -5 0 -6 8
-3 17 5 12 10 7 20 -21 13 -40 9 -61 -9 -50 -7 4 -8 2 -4 -4 5 -8 15 -8 32 -2
14 6 29 8 34 5 5 -3 11 -1 14 4 8 12 -19 22 -30 11 -5 -5 -10 2 -10 16 -2 31
11 31 41 -2 29 -31 32 -54 8 -54 -16 0 -16 -2 -3 -11 12 -8 10 -9 -10 -7 -19
2 -25 -2 -26 -17 -1 -11 -4 -30 -8 -42 -8 -27 -1 -29 21 -8 8 8 19 13 24 9 6
-3 16 0 24 6 10 8 15 9 15 2 0 -14 -31 -31 -47 -25 -7 3 -13 -1 -13 -9 0 -7
-11 -14 -24 -14 -24 -2 -27 17 -11 57 8 20 -10 35 -21 18 -4 -8 -3 -9 4 -5 17
11 14 -5 -5 -26 -9 -10 -12 -18 -7 -18 5 0 10 -9 10 -20 0 -11 -5 -20 -12 -20
-7 0 -10 15 -9 39 2 33 0 37 -11 27 -7 -8 -10 -23 -7 -36 5 -18 3 -21 -8 -16
-10 6 -10 4 1 -6 8 -7 15 -22 15 -32 0 -11 6 -21 13 -23 6 -3 12 0 12 6 0 6
-4 11 -10 11 -5 0 -10 4 -10 10 0 5 6 7 14 4 8 -3 17 -1 21 5 3 6 17 11 31 11
15 0 24 6 24 16 0 8 4 13 8 10 5 -3 19 2 31 10 15 11 20 22 16 37 -5 16 -4 18
3 8 6 -8 19 -12 31 -8 23 6 24 5 15 -18 -5 -13 -9 -14 -15 -4 -4 8 -11 10 -14
7 -10 -10 4 -28 21 -28 8 0 17 13 20 30 4 16 14 35 23 42 14 11 14 11 5 -2 -7
-8 -10 -27 -9 -42 4 -29 -21 -42 -62 -32 -14 4 -23 2 -23 -5 0 -6 -6 -11 -13
-11 -14 0 -77 -29 -77 -35 0 -2 12 -3 26 -2 19 1 27 -3 30 -17 4 -28 -14 -56
-31 -50 -8 4 -15 1 -15 -6 0 -6 5 -8 11 -4 7 4 9 0 5 -12 -6 -21 9 -52 20 -41
4 4 13 2 21 -4 9 -9 13 -8 13 0 0 6 -4 12 -10 12 -5 1 -14 2 -19 3 -15 2 -25
16 -12 16 7 0 10 3 7 8 -2 4 2 16 10 27 11 15 17 16 26 7 9 -9 8 -12 -5 -12
-18 0 -23 -25 -7 -35 6 -3 10 1 10 9 0 9 4 16 10 16 13 0 60 49 60 63 0 7 7 4
15 -6 7 -11 11 -25 8 -33 -3 -8 0 -14 7 -14 8 0 11 11 8 30 -4 25 -2 28 11 17
12 -10 14 -9 8 6 -4 11 -3 16 3 12 13 -8 13 -35 0 -35 -5 0 -10 -7 -10 -15 0
-7 -8 -19 -17 -24 -16 -9 -16 -12 -3 -20 8 -6 11 -13 7 -17 -4 -4 -2 -13 4
-21 9 -9 8 -13 0 -13 -6 0 -12 5 -12 10 -4 33 -20 60 -36 60 -8 0 -12 -4 -9
-9 7 -11 -22 -23 -35 -15 -5 3 -9 -5 -9 -17 0 -16 3 -19 13 -11 6 5 22 12 33
16 17 5 23 2 27 -16 6 -22 5 -22 -8 -4 -8 11 -15 15 -15 8 0 -6 -7 -9 -17 -5
-10 4 -14 2 -10 -5 4 -6 -1 -13 -10 -16 -10 -3 -5 -4 12 -2 28 4 28 3 10 -10
-10 -8 -22 -14 -27 -14 -14 0 -9 -32 7 -44 10 -8 12 -15 5 -26 -8 -13 -10 -13
-10 1 0 9 -8 19 -17 23 -10 3 -25 9 -33 13 -12 5 -13 4 -2 -9 10 -13 9 -16 -8
-21 -12 -3 -20 -13 -20 -27 0 -20 4 -22 30 -16 23 4 29 3 23 -7 -4 -6 -9 -21
-10 -32 -2 -15 -1 -17 6 -6 5 8 16 11 25 8 10 -4 16 -1 16 7 0 9 -8 12 -22 9
-21 -4 -21 -3 -5 7 14 9 22 9 33 0 11 -10 14 -9 14 4 0 10 -9 16 -22 17 -22 0
-22 1 -3 9 11 5 23 9 28 9 12 2 8 -57 -5 -62 -7 -2 -9 -8 -5 -13 5 -5 15 -1
23 10 8 11 14 14 14 8 0 -7 8 -12 18 -13 9 0 4 -5 -13 -10 -16 -5 -38 -7 -47
-5 -13 3 -18 -2 -18 -17 0 -16 -3 -18 -9 -9 -7 11 -9 11 -13 0 -4 -9 2 -14 18
-16 16 -1 22 2 18 13 -4 9 1 13 15 12 11 -1 23 -7 25 -14 3 -7 12 -10 20 -7 8
3 17 -2 20 -13 3 -10 18 -25 32 -34 25 -15 25 -16 5 -22 -11 -3 -19 -2 -18 2
1 3 -8 17 -20 31 -29 30 -30 8 -3 -30 19 -26 23 -28 51 -18 16 6 33 8 36 4 4
-3 -1 -6 -10 -6 -10 0 -17 -5 -17 -11 0 -5 4 -8 9 -5 5 3 14 -8 20 -24 8 -24
7 -29 -2 -24 -9 5 -9 4 0 -6 16 -17 23 -10 33 32 l8 33 2 -35 c1 -19 4 -29 7
-22 2 6 9 12 14 12 6 0 8 -4 5 -9 -7 -11 3 -41 14 -41 4 0 5 11 2 25 -2 14 0
25 6 25 6 0 9 -9 7 -20 -2 -11 1 -20 6 -20 6 0 7 -4 4 -10 -3 -5 0 -10 7 -11
10 0 10 -2 1 -6 -7 -2 -13 -9 -13 -14 0 -6 6 -9 13 -8 24 3 37 -1 37 -12 0 -6
-5 -7 -12 -2 -7 4 -20 8 -28 8 -9 0 -14 8 -13 20 1 19 1 19 -11 3 -18 -25 -23
-23 -29 12 -8 36 -25 40 -23 5 0 -14 4 -25 9 -25 4 0 7 -4 7 -9 0 -5 -17 -7
-37 -5 -89 10 -123 11 -123 4 0 -5 -8 -7 -17 -5 -10 1 -17 8 -15 14 1 7 -7 6
-21 -4 -13 -8 -27 -12 -30 -8 -4 3 -7 2 -7 -4 0 -22 -28 -20 -54 3 -19 19 -26
21 -26 9 0 -8 5 -15 10 -15 6 0 10 -4 10 -9 0 -5 -9 -7 -20 -4 -11 3 -18 8
-16 12 2 3 -8 7 -22 7 -15 1 -21 -1 -14 -3 6 -3 12 -9 12 -14 0 -6 -5 -7 -10
-4 -6 4 -24 -1 -42 -9 -36 -18 -50 -21 -28 -5 11 8 5 9 -27 6 -29 -3 -40 -1
-37 7 2 6 -6 11 -20 11 -26 0 -30 -16 -6 -27 13 -5 12 -7 -2 -7 -9 -1 -23 6
-32 14 -18 18 -30 20 -20 3 4 -7 -2 -4 -12 7 -11 11 -25 31 -32 45 -7 14 -10
17 -7 7 7 -24 13 -66 8 -50 -3 7 -16 10 -37 6 -22 -3 -38 0 -48 11 -14 14 -18
14 -28 1 -10 -12 -10 -15 0 -15 8 0 11 -2 8 -5 -10 -10 -67 17 -73 36 -4 10
-11 19 -17 19 -7 0 -6 5 2 15 13 16 6 35 -13 34 -9 0 -9 -2 1 -6 6 -2 12 -9
12 -14 0 -6 -4 -8 -8 -5 -4 2 -9 -4 -9 -15 -1 -10 2 -19 7 -19 5 0 8 -9 7 -21
l-1 -21 -18 22 c-10 12 -23 18 -29 15 -8 -6 -8 -9 1 -15 8 -5 7 -9 -4 -13 -11
-5 -16 -1 -16 12 0 11 5 21 11 23 8 3 6 14 -5 36 -9 18 -18 32 -20 32 -7 0 0
-46 9 -52 6 -5 5 -11 -3 -17 -18 -11 -18 -12 -3 -39 6 -12 8 -22 4 -21 -20 3
-67 -3 -55 -8 17 -6 15 -23 -2 -23 -8 0 -17 -6 -19 -12 -3 -7 -6 -3 -6 10 -1
17 -9 24 -31 29 -16 3 -30 11 -30 19 0 7 -4 15 -9 18 -4 3 -6 -5 -4 -18 3 -15
-1 -25 -10 -29 -11 -4 -14 1 -13 18 2 17 -1 22 -12 17 -11 -4 -14 -1 -10 9 4
9 -2 14 -18 15 -13 1 -24 -2 -24 -7 0 -5 -9 -9 -20 -9 -10 0 -24 -8 -29 -17
-9 -16 -10 -16 -11 -2 0 9 7 22 15 29 8 7 15 16 15 21 0 15 -30 10 -36 -6 -4
-8 -11 -12 -18 -8 -6 4 -5 -1 3 -10 8 -10 9 -17 3 -17 -6 0 -13 4 -16 9 -3 5
-14 7 -24 5 -9 -2 -24 0 -32 6 -12 8 -13 13 -2 30 7 11 8 20 3 20 -5 0 -16
-15 -25 -32 -8 -18 -16 -28 -16 -21 0 6 -14 16 -31 22 -21 7 -29 15 -26 25 4
10 1 13 -9 9 -11 -4 -12 -9 -5 -16 6 -6 11 -18 11 -26 -1 -9 -7 -4 -16 12 -15
29 -34 32 -42 7 -3 -8 0 -10 8 -5 9 6 11 4 5 -5 -6 -10 -11 -10 -20 3 -7 9
-15 15 -18 12 -4 -3 -5 -2 -3 1 2 3 7 4 10 2 3 -1 13 8 22 21 14 19 14 25 3
32 -11 6 -11 9 2 14 16 6 24 51 11 59 -5 3 -8 -4 -8 -16 1 -12 -5 -23 -12 -25
-7 -3 -10 1 -6 11 9 23 -24 32 -44 13 -9 -9 -13 -19 -9 -23 3 -3 13 1 22 10
21 20 32 21 15 1 -9 -10 -9 -15 -1 -15 6 0 11 -10 11 -22 0 -20 -1 -20 -12 -5
-10 13 -17 14 -28 6 -12 -9 -12 -10 4 -5 14 5 17 2 12 -10 -5 -13 -1 -15 20
-10 17 5 23 3 19 -4 -3 -5 -15 -10 -26 -10 -10 0 -19 -6 -19 -12 0 -9 -3 -8
-9 2 -6 8 -7 18 -5 22 3 4 0 8 -5 8 -6 0 -11 -6 -11 -14 0 -13 -29 -31 -37
-23 -2 2 6 15 17 30 11 14 20 34 20 44 0 10 5 24 12 31 19 19 -3 14 -26 -5
-21 -18 -21 -18 -3 3 9 11 17 28 17 37 0 9 4 17 10 17 5 0 7 -7 4 -15 -4 -8
-1 -15 5 -15 6 0 11 7 11 15 0 8 7 15 15 15 8 0 16 5 16 10 1 6 2 16 3 23 2
17 28 15 34 -3 5 -13 3 -13 -13 0 -17 14 -18 14 -6 -8 10 -18 14 -20 25 -10 8
7 14 15 13 18 0 3 3 13 8 23 6 14 10 15 21 6 28 -23 26 1 -2 26 l-29 27 37
-20 c22 -12 40 -17 43 -11 10 15 -4 29 -22 22 -11 -4 -14 -3 -9 6 5 7 15 10
23 7 11 -4 13 -2 9 9 -3 8 -1 15 4 15 6 0 10 -2 10 -4 0 -2 3 -12 7 -22 5 -13
3 -15 -7 -9 -9 5 -11 4 -6 -3 11 -18 26 -14 26 6 0 28 -24 54 -51 55 -20 2
-25 7 -24 27 0 18 5 25 20 25 26 0 47 14 40 26 -11 16 7 9 21 -8 11 -15 11
-11 1 24 -15 49 -25 64 -22 29 2 -18 -3 -27 -16 -31 -11 -4 -17 -11 -14 -16 3
-5 -1 -6 -10 -2 -11 4 -13 8 -5 13 6 3 8 15 4 26 -6 18 -6 18 10 -1 17 -19 17
-19 13 12 -2 18 0 30 5 27 4 -3 8 1 8 8 0 8 4 7 11 -4 12 -21 74 -52 87 -44 6
3 13 -1 16 -10 9 -23 -3 -32 -15 -14 -9 13 -10 13 -6 0 2 -8 14 -14 26 -13 11
2 21 -2 21 -7 0 -6 -5 -10 -12 -10 -6 0 -8 -3 -5 -6 4 -4 14 -1 22 6 15 12 15
14 1 22 -11 6 -14 17 -10 36 3 15 2 22 -3 16 -9 -12 -53 -14 -53 -2 0 4 5 8
12 8 6 0 3 6 -7 14 -15 11 -17 17 -7 28 6 8 8 19 4 23 -4 5 1 5 10 2 24 -9 33
11 15 31 -27 30 -27 65 0 96 20 24 27 27 35 15 7 -10 8 -8 3 9 -4 13 -2 22 4
22 6 0 11 9 11 20 0 20 14 27 23 13 2 -5 2 -2 1 4 -2 7 13 24 34 39 29 20 32
24 12 18 -22 -6 -23 -5 -11 9 7 9 17 15 21 12 5 -3 10 5 12 17 2 12 10 23 18
26 12 4 13 2 3 -9 -15 -15 -17 -33 -4 -25 5 3 12 -2 15 -11 6 -15 -8 -32 -26
-33 -5 0 -8 -5 -8 -11 0 -8 4 -8 13 -2 6 6 27 9 44 8 22 -2 31 1 26 8 -4 6 0
8 9 4 12 -4 15 0 12 16 -2 12 -1 16 2 8 5 -11 8 -11 16 0 6 10 7 6 2 -11 -4
-14 -14 -30 -23 -37 -22 -17 -2 -15 29 2 14 8 19 14 12 15 -8 0 -10 5 -5 13 4
6 8 14 8 17 1 13 24 44 25 33 0 -19 30 -3 30 16 1 14 2 14 11 -1 5 -10 17 -18
26 -18 9 0 13 -6 10 -14 -4 -10 -1 -13 9 -9 10 4 12 9 4 18 -10 12 -4 45 9 45
3 0 6 -14 7 -30 1 -38 9 -46 29 -30 9 7 19 10 22 6 4 -4 1 -12 -7 -17 -13 -9
-13 -10 0 -6 8 2 17 12 18 21 3 13 -2 17 -20 15 -12 -2 -23 1 -23 6 0 15 21
14 49 0 21 -11 26 -11 26 -1 0 7 7 13 15 13 8 0 15 -4 15 -8 0 -4 22 -9 49
-11 27 -1 47 0 44 5 -2 4 -11 7 -19 7 -29 0 -13 15 18 17 18 2 35 8 38 15 2 7
6 3 8 -9 2 -13 7 -23 12 -23z m-105 10 c3 -5 -1 -10 -10 -10 -9 0 -13 5 -10
10 3 6 8 10 10 10 2 0 7 -4 10 -10z m-485 -10 c-20 -13 -33 -13 -25 0 3 6 14
10 23 10 15 0 15 -2 2 -10z m720 -25 c0 -8 -4 -15 -10 -15 -5 0 -7 7 -4 15 4
8 8 15 10 15 2 0 4 -7 4 -15z m-737 -17 c-9 -11 -11 -18 -5 -18 7 0 12 -5 12
-12 0 -6 -3 -8 -6 -5 -6 6 -44 -35 -44 -48 0 -3 -17 -24 -37 -46 -21 -23 -38
-46 -38 -52 0 -7 -8 -18 -18 -25 -9 -7 -15 -18 -12 -23 4 -5 2 -9 -4 -9 -14 0
-6 83 8 88 13 4 15 22 2 22 -18 0 -42 -33 -36 -49 5 -13 4 -14 -7 -3 -10 10
-10 16 0 32 11 18 10 22 -10 30 -20 8 -11 15 14 11 7 -1 22 41 23 63 0 5 6 11
13 14 10 3 10 -3 -1 -31 -9 -21 -11 -40 -6 -48 5 -8 9 -9 9 -4 0 6 5 3 10 -5
6 -10 10 -11 10 -3 0 7 10 12 22 10 17 -1 24 4 26 21 2 12 8 22 13 22 6 0 7 5
4 10 -3 6 0 10 7 10 25 0 38 21 27 43 -8 14 -8 18 0 13 6 -4 11 -3 11 2 0 5 7
9 15 9 13 0 13 -3 -2 -19z m135 -6 c-4 -23 -27 -26 -25 -4 0 10 7 19 14 19 8
0 13 -7 11 -15z m-203 -2 c3 -5 -1 -10 -10 -10 -9 0 -13 5 -10 10 3 6 8 10 10
10 2 0 7 -4 10 -10z m1050 -39 c-13 -14 -17 -13 -32 4 -12 12 -12 15 -3 8 9
-7 21 -8 29 -4 9 6 7 10 -9 14 -12 3 -19 10 -16 16 4 6 14 4 26 -7 18 -14 18
-18 5 -31z m-1023 17 c-7 -7 -12 -8 -12 -2 0 14 12 26 19 19 2 -3 -1 -11 -7
-17z m1094 6 c-3 -9 -6 -18 -6 -20 0 -2 -4 -4 -9 -4 -5 0 -7 9 -4 20 3 11 10
20 15 20 6 0 7 -7 4 -16z m-1146 -8 c0 -2 -7 -7 -16 -10 -8 -3 -12 -2 -9 4 6
10 25 14 25 6z m1015 -5 c3 -5 2 -12 -3 -15 -5 -3 -9 1 -9 9 0 17 3 19 12 6z
m-27 -27 c0 -17 -4 -22 -11 -15 -5 5 -7 17 -4 25 9 23 15 19 15 -10z m-968 4
c0 -5 -11 -14 -25 -20 -14 -6 -25 -15 -25 -20 0 -5 -4 -6 -10 -3 -5 3 -10 11
-10 16 0 6 5 7 12 3 7 -5 9 -2 5 9 -4 10 0 17 11 19 29 6 42 5 42 -4z m1080
-35 c-10 -16 -11 -15 -7 5 3 12 1 22 -5 22 -5 0 -6 5 -2 11 5 8 10 6 16 -5 6
-10 5 -22 -2 -33z m-1180 15 c0 -6 -6 -5 -15 2 -8 7 -15 14 -15 16 0 2 7 1 15
-2 8 -4 15 -11 15 -16z m1118 0 c-9 -6 -3 -7 17 -3 l30 6 -34 -25 c-19 -14
-40 -26 -45 -26 -6 1 0 7 13 14 14 8 19 16 13 20 -6 3 -13 2 -17 -4 -3 -5 -15
-10 -26 -10 -10 0 -19 -7 -19 -15 0 -8 -3 -15 -7 -16 -5 0 -16 -2 -26 -4 -12
-2 -17 1 -13 10 3 8 0 16 -7 19 -7 3 -6 5 3 4 27 -3 100 25 100 38 0 8 6 11
16 7 13 -5 13 -8 2 -15z m139 -10 c-3 -8 -6 -5 -6 6 -1 11 2 17 5 13 3 -3 4
-12 1 -19z m-42 2 c3 -5 1 -10 -4 -10 -6 0 -11 5 -11 10 0 6 2 10 4 10 3 0 8
-4 11 -10z m-1315 -4 c0 -3 -4 -8 -10 -11 -5 -3 -10 -1 -10 4 0 6 5 11 10 11
6 0 10 -2 10 -4z m190 0 c0 -3 -4 -8 -10 -11 -5 -3 -10 -1 -10 4 0 6 5 11 10
11 6 0 10 -2 10 -4z m-225 -16 c-3 -5 -14 -10 -23 -10 -15 0 -15 2 -2 10 20
13 33 13 25 0z m1314 -31 c-16 -10 -23 -4 -14 10 3 6 11 8 17 5 6 -4 5 -9 -3
-15z m-1331 -9 c-7 -10 -14 -18 -15 -16 -6 6 9 36 18 36 5 0 4 -9 -3 -20z m97
1 c-3 -6 -11 -8 -17 -5 -6 4 -15 0 -20 -7 -8 -12 -9 -11 -5 1 2 8 12 14 21 14
9 -1 16 3 16 9 0 6 3 8 6 4 3 -3 3 -11 -1 -16z m1256 -24 c-8 -8 -14 -7 -23 2
-11 11 -10 13 0 7 7 -4 15 0 19 10 5 12 8 14 11 5 2 -7 -1 -18 -7 -24z m18
-11 c-22 -20 -22 -20 -6 0 9 11 17 27 18 35 0 11 2 11 6 0 3 -7 -5 -23 -18
-35z m-1264 5 c-3 -6 -11 -11 -17 -11 -6 0 -6 6 2 15 14 17 26 13 15 -4z m-85
-16 c6 17 7 17 13 -4 3 -13 3 -20 0 -17 -4 3 -12 1 -20 -6 -10 -8 -17 -8 -26
1 -9 10 -8 11 8 6 19 -6 19 -6 3 8 -10 8 -15 17 -11 21 4 4 11 -1 17 -11 9
-16 10 -16 16 2z m50 -5 c6 -11 8 -20 6 -20 -3 0 -10 9 -16 20 -6 11 -8 20 -6
20 3 0 10 -9 16 -20z m1409 -1 c-22 -13 -31 -11 -17 5 7 8 17 12 22 9 4 -3 2
-9 -5 -14z m-256 -17 c-3 -12 -9 -19 -14 -16 -5 3 -3 14 3 24 15 24 19 21 11
-8z m-1076 -8 c2 -13 1 -15 -4 -4 -3 8 -11 19 -17 23 -7 6 -6 7 4 4 8 -2 16
-12 17 -23z m1126 20 c8 -8 -3 -34 -14 -34 -5 0 -9 9 -9 20 0 19 11 26 23 14z
m142 -3 c3 -5 2 -12 -3 -15 -5 -3 -9 1 -9 9 0 17 3 19 12 6z m99 -27 c7 -19 2
-18 -19 6 -16 17 -16 20 -3 15 9 -4 19 -13 22 -21z m-1456 -29 c-3 -3 -9 2
-12 12 -6 14 -5 15 5 6 7 -7 10 -15 7 -18z m74 5 c-1 -7 3 -18 9 -26 16 -20 1
-17 -19 3 -13 13 -14 17 -3 21 11 4 11 6 0 14 -11 8 -11 9 1 5 8 -2 14 -10 12
-17z m1286 -9 c-1 -20 -5 -28 -14 -24 -19 7 -17 -2 4 -23 15 -16 15 -17 0 -12
-22 9 -30 -2 -15 -21 10 -12 7 -12 -12 2 -18 12 -28 14 -38 5 -8 -6 -13 -7
-13 0 0 12 29 24 41 16 8 -5 13 10 7 20 -2 2 6 13 16 25 11 12 16 24 13 28 -4
3 -7 1 -7 -5 0 -7 -5 -12 -11 -12 -8 0 -8 5 1 15 19 23 29 18 28 -14z m-1234
7 c-3 -4 -9 -8 -15 -8 -5 0 -9 4 -9 8 0 5 7 9 15 9 8 0 12 -4 9 -9z m46 2 c0
-5 -4 -10 -10 -10 -5 0 -10 5 -10 10 0 6 5 10 10 10 6 0 10 -4 10 -10z m987 3
c-9 -2 -15 -9 -12 -14 4 -5 1 -9 -4 -9 -6 0 -11 7 -11 15 0 9 9 15 23 14 17
-1 18 -2 4 -6z m151 -28 c0 -32 -9 -26 -12 9 -2 14 0 23 4 21 4 -3 8 -16 8
-30z m132 25 c8 -5 11 -10 5 -10 -5 0 -17 5 -25 10 -8 5 -10 10 -5 10 6 0 17
-5 25 -10z m-1303 -32 c-3 -8 -6 -5 -6 6 -1 11 2 17 5 13 3 -3 4 -12 1 -19z
m-167 -8 c0 -5 -2 -10 -4 -10 -3 0 -8 5 -11 10 -3 6 -1 10 4 10 6 0 11 -4 11
-10z m24 -5 c3 -8 1 -15 -4 -15 -6 0 -10 7 -10 15 0 8 2 15 4 15 2 0 6 -7 10
-15z m145 -41 c14 -12 -19 -1 -35 12 -18 14 -18 14 6 3 14 -6 27 -13 29 -15z
m-190 -5 c-22 -13 -31 -11 -17 5 7 8 17 12 22 9 4 -3 2 -9 -5 -14z m51 11 c0
-5 -5 -10 -11 -10 -5 0 -7 5 -4 10 3 6 8 10 11 10 2 0 4 -4 4 -10z m24 -15
c-4 -8 -8 -15 -10 -15 -2 0 -4 7 -4 15 0 8 4 15 10 15 5 0 7 -7 4 -15z m1363
-47 c-4 -21 -4 -21 -6 5 0 15 -5 27 -11 27 -5 0 -6 -7 -3 -17 4 -11 3 -14 -5
-9 -7 4 -12 18 -12 32 0 25 0 25 21 5 13 -12 19 -27 16 -43z m-77 27 c-5 -7
-7 -15 -3 -18 3 -4 2 -7 -4 -7 -15 0 -9 -40 8 -50 12 -8 12 -11 0 -22 -9 -8
-11 -9 -7 -1 3 6 2 14 -3 17 -5 4 -12 -2 -14 -11 -3 -10 -4 -4 -3 12 2 17 -1
38 -6 48 -11 21 3 44 27 44 10 0 12 -4 5 -12z m50 -72 c0 -2 5 -3 11 -3 5 0 7
5 3 12 -4 7 -3 8 5 4 9 -6 9 -11 1 -21 -7 -8 -9 -19 -5 -25 3 -5 2 -10 -3 -10
-5 0 -12 10 -16 23 -5 18 -8 20 -16 7 -7 -11 -8 -6 -4 16 3 18 1 34 -5 38 -5
4 -7 14 -4 22 4 11 10 4 19 -23 8 -21 14 -39 14 -40z m-1413 35 c-3 -8 -6 -5
-6 6 -1 11 2 17 5 13 3 -3 4 -12 1 -19z m55 -23 c-6 -12 -11 -14 -16 -6 -4 6
-2 11 4 11 7 0 9 7 5 18 -5 13 -3 14 5 5 8 -7 9 -17 2 -28z m1251 22 c-2 -4 1
-15 8 -23 10 -12 9 -13 -5 -8 -9 3 -16 10 -16 15 0 5 -7 9 -15 9 -8 0 -15 -5
-15 -11 0 -5 -4 -8 -9 -4 -5 3 -12 1 -16 -5 -3 -5 -1 -10 6 -10 7 0 10 -2 7
-5 -3 -3 -12 -3 -21 1 -21 8 -10 34 13 34 11 0 21 4 25 9 3 6 14 9 25 8 10 -1
16 -5 13 -10z m172 -17 c-3 -5 -12 -10 -18 -10 -7 0 -6 4 3 10 19 12 23 12 15
0z m-191 -25 c3 -8 1 -15 -4 -15 -6 0 -10 7 -10 15 0 8 2 15 4 15 2 0 6 -7 10
-15z m36 -24 c9 -17 7 -19 -13 -15 -19 3 -23 -1 -23 -18 1 -11 -5 -22 -12 -24
-7 -1 -8 0 -2 3 15 7 12 30 -5 37 -8 3 -15 11 -15 18 0 9 3 9 8 2 10 -15 54
-13 48 3 -8 20 2 15 14 -6z m171 2 c13 -16 12 -17 -3 -4 -10 7 -18 15 -18 17
0 8 8 3 21 -13z m-34 -15 c-3 -8 -6 -5 -6 6 -1 11 2 17 5 13 3 -3 4 -12 1 -19z
m-263 -3 c-6 -15 -42 -31 -51 -22 -10 11 8 26 24 20 11 -4 14 -3 9 5 -4 7 -1
12 8 12 9 0 13 -6 10 -15z m-1175 -50 c0 -5 -4 -3 -9 5 -5 8 -9 22 -9 30 0 16
17 -16 18 -35z m41 24 c0 -11 -4 -18 -10 -14 -5 3 -7 12 -3 20 7 21 13 19 13
-6z m30 11 c0 -5 -4 -10 -10 -10 -5 0 -10 5 -10 10 0 6 5 10 10 10 6 0 10 -4
10 -10z m-143 -66 c-3 -3 -12 -4 -19 -1 -8 3 -5 6 6 6 11 1 17 -2 13 -5z m58
-4 c-3 -5 -11 -10 -16 -10 -6 0 -7 5 -4 10 3 6 11 10 16 10 6 0 7 -4 4 -10z
m-45 -20 c-8 -5 -19 -10 -25 -10 -5 0 -3 5 5 10 8 5 20 10 25 10 6 0 3 -5 -5
-10z m1354 -16 c3 -8 10 -12 16 -9 6 4 8 11 5 16 -4 5 2 6 11 2 11 -4 13 -8 6
-11 -7 -2 -12 -10 -12 -18 0 -19 -19 -18 -27 2 -3 9 -15 20 -27 24 l-21 9 21
0 c12 1 25 -6 28 -15z m52 -32 c-18 -16 -18 -16 -6 6 6 13 14 21 18 18 3 -4
-2 -14 -12 -24z m45 15 c-6 -8 -8 -17 -4 -20 3 -4 1 -7 -5 -7 -15 0 -15 13 0
28 16 16 23 15 9 -1z m40 -34 c13 -16 12 -17 -3 -4 -10 7 -18 15 -18 17 0 8 8
3 21 -13z m-38 -18 c-3 -9 -8 -14 -10 -11 -3 3 -2 9 2 15 9 16 15 13 8 -4z
m-1550 -20 c-3 -9 -8 -14 -10 -11 -3 3 -2 9 2 15 9 16 15 13 8 -4z m1595 -3
c-6 -7 -14 -9 -17 -5 -4 4 -10 11 -14 14 -5 4 3 6 16 5 20 -1 23 -4 15 -14z
m17 -22 c-10 -11 -21 -18 -23 -15 -3 3 3 12 14 20 27 20 30 18 9 -5z m44 -25
c0 -5 -4 -3 -9 5 -5 8 -9 22 -9 30 0 16 17 -16 18 -35z m-1629 5 c-24 -15 -37
-11 -16 5 11 8 22 12 25 9 3 -3 -1 -9 -9 -14z m1640 -24 c0 -11 -19 -15 -25
-6 -3 5 1 10 9 10 9 0 16 -2 16 -4z m14 -21 c-4 -8 -11 -15 -16 -15 -6 0 -5 6
2 15 7 8 14 15 16 15 2 0 1 -7 -2 -15z m-1294 -39 c0 -3 -4 -8 -10 -11 -5 -3
-10 -1 -10 4 0 6 5 11 10 11 6 0 10 -2 10 -4z m74 -59 c-9 -24 -21 -12 -21 19
0 22 1 24 14 12 7 -8 11 -22 7 -31z m-47 4 c10 -16 9 -20 -3 -25 -9 -3 -12 -2
-9 5 4 5 1 16 -5 24 -7 8 -8 15 -4 15 5 0 15 -9 21 -19z m1123 7 c0 -11 -28
-10 -35 1 -3 6 4 9 15 8 11 -1 20 -5 20 -9z m-185 -8 c3 -6 -1 -7 -9 -4 -18 7
-21 14 -7 14 6 0 13 -4 16 -10z m-158 -6 c-3 -3 -12 -4 -19 -1 -8 3 -5 6 6 6
11 1 17 -2 13 -5z m-624 -21 c-7 -2 -19 -2 -25 0 -7 3 -2 5 12 5 14 0 19 -2
13 -5z m1035 -150 c-15 -2 -42 -2 -60 0 -18 2 -6 4 27 4 33 0 48 -2 33 -4z
m200 -10 c-15 -2 -42 -2 -60 0 -18 2 -6 4 27 4 33 0 48 -2 33 -4z m-2000 -10
c-10 -2 -26 -2 -35 0 -10 3 -2 5 17 5 19 0 27 -2 18 -5z m2242 -18 c52 -13 52
-14 10 -8 -25 3 -81 12 -125 19 l-80 14 70 -6 c39 -3 95 -11 125 -19z m-2055
-4 c47 -14 -1 -12 -80 4 l-70 14 60 -5 c33 -2 74 -8 90 -13z m68 -18 c-7 -2
-19 -2 -25 0 -7 3 -2 5 12 5 14 0 19 -2 13 -5z m2142 -3 c27 -7 27 -8 5 -8
-14 0 -38 4 -55 8 -27 7 -27 8 -5 8 14 0 39 -4 55 -8z m-2027 -30 c42 -17 86
-37 96 -45 27 -20 6 -19 -22 1 -13 9 -58 29 -100 44 -42 16 -71 29 -64 30 7 0
47 -14 90 -30z m2089 14 c-3 -3 -12 -4 -19 -1 -8 3 -5 6 6 6 11 1 17 -2 13 -5z
m-1921 -105 c4 -8 1 -8 -14 0 -12 6 -24 16 -28 22 -4 8 -1 8 14 0 12 -6 24
-16 28 -22z m383 5 c33 -4 61 -11 61 -16 0 -5 -10 -6 -22 -2 -12 3 -65 10
-117 14 -72 5 -82 7 -40 9 31 0 84 -2 118 -5z m1580 -10 c11 -10 -9 -9 -64 2
l-60 12 60 -5 c33 -3 62 -7 64 -9z m348 -235 c14 -14 -17 -73 -54 -101 -15
-12 -32 -28 -36 -35 -7 -12 -97 -20 -97 -9 0 22 29 67 68 107 48 50 93 64 119
38z m-2075 -61 c-8 -10 -4 -13 14 -14 13 -1 24 2 24 8 0 5 5 6 10 3 6 -4 8
-10 5 -15 -3 -5 5 -12 19 -16 25 -6 40 -29 30 -45 -3 -6 -1 -16 6 -24 8 -10 8
-15 0 -20 -8 -5 -4 -15 12 -32 l23 -26 -25 13 c-14 7 -33 19 -42 28 -10 8 -18
11 -18 6 0 -5 14 -18 30 -29 16 -11 30 -24 30 -29 0 -5 -7 -3 -15 4 -8 7 -15
9 -15 4 0 -4 -6 1 -14 12 -8 10 -18 16 -22 11 -4 -4 -2 -7 4 -7 7 0 12 -6 12
-14 0 -8 7 -17 16 -20 13 -5 15 -16 9 -62 -3 -30 -9 -63 -12 -72 -4 -15 -3
-15 6 -2 9 13 11 13 11 -1 0 -9 -6 -22 -14 -29 -16 -13 -10 -44 6 -34 6 4 6
-1 -1 -13 -6 -11 -8 -23 -4 -26 3 -4 2 -12 -4 -19 -18 -25 -15 -77 6 -107 12
-16 17 -32 12 -35 -5 -4 -11 0 -14 6 -2 7 -4 -6 -4 -29 0 -29 3 -40 12 -37 9
4 12 -6 10 -33 -2 -21 -1 -32 2 -25 7 17 23 15 23 -3 0 -13 11 -19 31 -17 3 1
4 -11 1 -26 l-6 -27 -7 25 c-4 14 -6 -10 -4 -53 4 -74 3 -77 -16 -67 -15 9
-19 7 -19 -5 0 -9 -4 -13 -10 -10 -5 3 -10 2 -10 -3 0 -5 -8 -9 -17 -9 -28 -1
-93 19 -93 29 0 5 -4 7 -9 4 -15 -10 -41 5 -40 23 0 10 2 11 6 4 2 -7 12 -13
21 -13 14 1 14 3 -4 18 -24 20 -30 87 -7 78 7 -3 13 1 13 8 0 8 -6 16 -14 19
-16 7 -13 57 5 68 10 6 10 11 0 23 -11 13 -11 16 2 16 10 0 13 6 10 20 -4 16
-8 18 -19 9 -8 -7 -14 -7 -14 -1 0 5 6 15 14 21 18 15 26 70 12 79 -6 3 0 9
14 13 l25 7 -25 1 c-24 2 -24 2 -6 16 17 13 18 15 3 15 -20 0 -23 30 -5 48 10
10 10 15 -1 22 -10 5 -14 27 -14 64 0 37 -4 53 -11 48 -6 -3 4 11 21 33 18 21
30 41 27 44 -3 3 -9 -1 -14 -9 -5 -8 -13 -11 -17 -6 -4 4 -1 13 7 19 10 8 15
24 13 45 -2 20 1 31 7 27 6 -3 10 -1 10 4 0 6 -4 11 -9 11 -12 0 -21 39 -10
46 5 3 9 -2 9 -10 0 -23 15 -19 17 4 1 11 -3 20 -8 20 -6 0 -8 4 -4 9 3 5 0
13 -6 17 -9 5 -7 11 6 21 23 16 31 17 17 1z m1559 -421 c-10 -9 -11 -8 -5 6 3
10 9 15 12 12 3 -3 0 -11 -7 -18z m-38 -82 c-3 -9 -8 -14 -10 -11 -3 3 -2 9 2
15 9 16 15 13 8 -4z m-1413 -39 c0 -3 -7 -3 -15 0 -8 4 -15 13 -15 21 0 12 2
12 15 -1 8 -8 15 -17 15 -20z m465 -53 c17 -11 59 -32 95 -46 36 -15 57 -27
48 -27 -33 0 -143 58 -184 96 -22 22 -29 30 -15 18 14 -11 40 -30 56 -41z
m-1865 -30 c3 -3 -8 1 -25 10 -16 8 -41 27 -55 42 -20 22 -14 20 25 -10 28
-20 52 -40 55 -42z m2750 44 c0 -2 -10 -12 -22 -23 l-23 -19 19 23 c18 21 26
27 26 19z m-2685 -67 c28 -10 43 -19 35 -19 -14 0 -101 36 -90 38 3 1 28 -8
55 -19z m3235 -29 c0 -61 -11 -99 -36 -126 l-23 -25 -35 21 c-21 12 -43 18
-55 14 -11 -3 -26 1 -35 11 -28 28 -19 38 77 79 20 9 37 20 37 25 0 8 45 37
63 39 4 1 7 -16 7 -38z m-3153 3 c-3 -3 -12 -4 -19 -1 -8 3 -5 6 6 6 11 1 17
-2 13 -5z m1910 0 c-3 -3 -12 -4 -19 -1 -8 3 -5 6 6 6 11 1 17 -2 13 -5z
m-1839 -11 c-10 -2 -26 -2 -35 0 -10 3 -2 5 17 5 19 0 27 -2 18 -5z m2147 -8
c21 -7 -222 -3 -260 4 -23 5 20 6 105 4 80 -3 150 -6 155 -8z m-1952 -2 c-7
-2 -21 -2 -30 0 -10 3 -4 5 12 5 17 0 24 -2 18 -5z m1065 -124 c13 0 13 -2 -3
-8 -26 -11 -36 -5 -28 16 4 11 8 13 11 5 2 -7 11 -12 20 -13z m1697 -31 c-4
-13 -9 -30 -11 -40 -6 -20 -70 -52 -90 -44 -25 10 -11 40 24 50 17 5 32 14 32
20 0 16 21 36 38 36 9 0 11 -7 7 -22z m-1240 -108 c-3 -5 -14 -10 -23 -9 -14
0 -13 2 3 9 27 11 27 11 20 0z m-63 -32 c-8 -8 -9 -15 -1 -25 19 -22 3 -14
-17 9 -10 12 -13 18 -6 14 7 -4 15 -1 18 9 4 9 9 13 12 10 3 -3 0 -11 -6 -17z
m92 0 c4 7 12 12 18 12 7 0 2 -9 -11 -21 -31 -29 -20 -34 20 -10 18 11 37 17
42 14 5 -3 13 1 18 8 6 10 9 10 9 2 0 -17 -51 -63 -70 -63 -13 0 -13 -2 0 -10
9 -5 19 -5 26 1 6 5 19 7 28 3 10 -4 16 -1 16 7 0 7 3 9 7 6 3 -4 -2 -17 -13
-29 -19 -21 -19 -21 4 -15 13 3 21 3 18 0 -3 -3 2 -12 12 -19 16 -12 15 -13
-5 -14 -13 0 -23 5 -23 11 0 8 -4 8 -14 0 -10 -9 -16 -9 -21 -1 -12 19 -33 -8
-27 -35 4 -21 0 -25 -19 -26 -13 0 -18 -3 -11 -6 7 -3 20 -2 30 3 9 4 23 8 31
8 17 1 28 26 12 26 -6 0 -11 -5 -11 -11 0 -5 -5 -7 -10 -4 -6 4 -8 10 -5 15 3
4 -1 10 -7 13 -7 3 2 5 20 4 18 0 30 -2 27 -5 -7 -8 16 -32 30 -32 8 0 16 8
18 18 4 13 5 11 6 -5 0 -13 7 -23 14 -23 8 0 7 -3 -3 -10 -8 -5 -11 -12 -7
-16 4 -4 16 1 27 11 22 20 27 9 7 -15 -12 -15 -60 -23 -51 -8 5 8 -10 12 -36
8 -12 -1 -13 1 -2 11 14 15 16 29 2 29 -5 0 -13 -15 -18 -32 -5 -18 -14 -32
-21 -30 -6 1 -11 -2 -11 -8 0 -14 7 -13 36 6 25 17 41 14 29 -5 -3 -6 -10 -9
-15 -6 -5 3 -12 0 -16 -6 -4 -8 -3 -9 4 -5 7 4 12 1 12 -6 0 -9 3 -9 8 -2 4 6
17 16 29 22 16 9 22 9 26 -1 3 -8 13 -4 30 12 15 13 24 27 22 31 -2 4 2 7 9 7
8 0 12 -6 10 -12 -8 -19 -64 -56 -75 -50 -12 8 -36 -10 -50 -38 -10 -18 -8
-19 33 -13 l43 6 -47 -18 c-47 -17 -81 -40 -43 -28 11 3 27 1 35 -4 13 -9 10
-14 -15 -35 -16 -14 -35 -25 -42 -25 -7 0 -17 -9 -23 -20 -6 -11 -19 -20 -28
-20 -46 0 -78 -59 -33 -61 9 0 11 -3 4 -5 -7 -3 -20 -1 -29 4 -22 12 -54 4
-54 -14 0 -15 15 -19 23 -6 2 4 2 1 0 -7 -2 -7 2 -19 8 -27 8 -10 6 -11 -15
-1 -14 7 -26 18 -26 25 0 7 -5 10 -10 7 -6 -4 -7 -11 -4 -17 5 -7 2 -8 -6 -3
-7 4 -16 2 -21 -6 -6 -10 -9 -11 -9 -1 0 7 9 20 20 29 11 10 20 22 20 27 0 6
-5 5 -12 -2 -19 -19 -32 -14 -17 6 13 15 12 16 -4 3 -11 -8 -15 -21 -12 -32 4
-11 2 -19 -5 -19 -6 0 -8 -5 -4 -12 4 -6 3 -8 -4 -5 -5 4 -8 16 -5 27 7 27 -5
72 -17 65 -6 -3 -10 -1 -10 6 0 21 -13 1 -14 -22 0 -12 -8 -25 -16 -27 -13 -5
-13 -3 -1 11 8 11 9 17 3 17 -7 0 -9 7 -5 17 7 17 5 16 -21 -1 l-29 -18 6 23
c4 13 7 31 8 39 0 8 5 4 9 -10 7 -23 8 -23 9 -3 1 28 -9 53 -21 53 -5 0 -7 -4
-4 -9 8 -13 -14 -71 -27 -71 -5 0 -2 -9 8 -20 17 -19 19 -19 31 -2 13 16 13
16 14 0 0 -10 -4 -18 -10 -18 -5 0 -7 -8 -4 -17 5 -14 4 -15 -4 -4 -7 10 -14
11 -33 1 -22 -10 -23 -10 -5 4 23 19 12 43 -12 24 -10 -7 -14 -8 -10 -4 4 5 2
16 -5 24 -9 13 -9 14 1 8 7 -4 12 -1 12 9 0 9 5 13 10 10 6 -3 10 -2 10 4 0 5
-4 13 -10 16 -5 3 -10 20 -10 36 0 18 4 28 10 24 6 -3 10 -1 10 4 0 6 -4 11
-10 11 -5 0 -10 5 -10 11 0 5 5 7 10 4 9 -6 14 14 11 42 -1 6 3 14 9 18 5 3
10 14 10 23 0 15 -2 15 -10 2 -6 -9 -10 -10 -10 -3 0 6 5 15 10 18 6 4 8 11 5
16 -4 5 -1 9 5 9 7 0 9 7 6 16 -4 12 -2 15 9 10 9 -3 15 0 15 8 0 8 6 16 13
19 6 2 8 8 4 13 -5 5 -15 1 -23 -10 -15 -21 -18 -18 -8 8 3 9 16 16 28 17 11
0 15 3 9 6 -7 2 -13 9 -13 14 0 5 6 9 13 9 6 0 32 14 56 30 24 17 53 30 65 29
21 0 21 -1 1 -9 -19 -8 -19 -9 2 -9 17 -1 24 7 31 32 6 22 15 33 30 35 12 2
22 9 23 15 0 7 4 3 8 -7 5 -14 10 -16 15 -8z m149 -12 c-10 -13 -20 -22 -22
-20 -4 4 29 44 36 44 2 0 -4 -11 -14 -24z m57 -30 c0 -2 -8 -10 -17 -17 -16
-13 -17 -12 -4 4 13 16 21 21 21 13z m-46 -25 c-5 -5 -18 -5 -29 0 -18 9 -18
9 3 5 12 -2 22 1 22 7 0 6 3 7 7 4 4 -4 2 -11 -3 -16z m89 2 c-7 -2 -19 -2
-25 0 -7 3 -2 5 12 5 14 0 19 -2 13 -5z m891 -8 c3 -8 1 -15 -4 -15 -6 0 -10
7 -10 15 0 8 2 15 4 15 2 0 6 -7 10 -15z m-44 -70 c-1 -14 -7 -8 -20 19 -26
51 -26 70 0 31 11 -16 20 -39 20 -50z m-918 58 c-6 -2 -10 -8 -7 -13 3 -4 -3
-14 -12 -21 -9 -8 -14 -9 -11 -4 2 6 8 18 11 28 4 9 12 17 19 16 10 0 10 -2 0
-6z m73 -3 c-3 -5 -12 -10 -18 -10 -7 0 -6 4 3 10 19 12 23 12 15 0z m-105 -4
c0 -3 -4 -8 -10 -11 -5 -3 -10 -1 -10 4 0 6 5 11 10 11 6 0 10 -2 10 -4z m83
-43 c-5 -13 -2 -15 13 -10 19 7 19 7 0 -8 -19 -15 -46 -20 -46 -10 0 10 25 45
32 45 4 0 4 -8 1 -17z m-41 0 c-6 -2 -10 -9 -7 -13 3 -5 1 -11 -5 -15 -5 -3
-10 0 -10 8 0 17 10 27 24 26 6 0 5 -3 -2 -6z m-62 -13 c0 -5 -4 -10 -10 -10
-5 0 -10 5 -10 10 0 6 5 10 10 10 6 0 10 -4 10 -10z m165 -40 c-3 -5 -12 -10
-18 -10 -7 0 -6 4 3 10 19 12 23 12 15 0z m-35 -24 c0 -2 -8 -10 -17 -17 -16
-13 -17 -12 -4 4 13 16 21 21 21 13z m20 -59 c0 -6 -6 -3 -13 8 -10 13 -16 15
-21 6 -4 -6 -2 -20 6 -29 11 -15 11 -15 -2 -5 -10 8 -21 9 -30 3 -8 -6 -19
-10 -25 -10 -5 1 -1 6 10 12 11 6 26 20 33 30 11 15 17 16 28 7 8 -6 14 -16
14 -22z m-88 -3 c-13 -9 -26 -13 -29 -10 -3 3 -12 1 -20 -6 -7 -6 -16 -8 -20
-4 -10 10 4 19 32 19 14 0 28 3 31 8 3 5 10 9 17 9 6 0 1 -7 -11 -16z m-499
-8 c9 9 -5 -40 -15 -53 -5 -7 -7 -17 -3 -23 3 -5 1 -10 -5 -10 -7 0 -10 -7 -7
-15 4 -8 2 -17 -4 -20 -5 -4 -7 -10 -4 -15 3 -5 1 -11 -5 -15 -5 -3 -10 -16
-11 -28 0 -21 -1 -21 -8 -2 -5 11 -4 22 0 23 12 5 12 32 0 32 -5 0 -8 11 -8
25 0 14 4 25 9 25 6 0 8 -9 5 -20 -3 -11 -1 -20 4 -20 10 0 11 15 3 47 -4 14
-11 20 -18 16 -6 -4 -6 0 2 9 7 8 10 24 6 34 -5 16 -4 16 5 4 6 -8 11 -26 11
-40 0 -19 3 -21 9 -11 5 8 6 24 1 37 -10 26 -2 38 15 24 7 -5 14 -7 18 -4z
m-91 -34 c-7 -2 -10 -8 -6 -13 14 -23 14 -59 0 -59 -13 0 -46 41 -46 57 0 4 9
-5 19 -21 l19 -29 -3 41 c-2 33 0 39 13 34 11 -4 12 -7 4 -10z m-96 -51 c-4
-6 -15 -11 -24 -11 -10 0 -23 -9 -30 -21 -11 -17 -11 -25 3 -45 24 -36 35 -29
30 19 l-5 42 14 -30 c7 -16 11 -37 8 -45 -5 -13 -3 -13 11 -1 9 7 17 9 17 3 0
-5 -7 -12 -15 -16 -9 -3 -12 -12 -8 -22 4 -12 3 -15 -5 -10 -7 4 -12 2 -12 -3
0 -6 8 -11 19 -11 24 0 52 -31 34 -37 -7 -3 -13 -9 -13 -14 0 -4 7 -6 15 -3
11 5 14 0 12 -17 -4 -24 -27 -40 -27 -19 0 8 -11 11 -30 8 -17 -3 -30 0 -31 6
0 6 -3 5 -6 -2 -2 -6 -8 -10 -12 -8 -4 3 -34 -8 -67 -24 -60 -30 -104 -38
-104 -19 0 5 -4 8 -9 4 -17 -10 -81 27 -81 47 0 10 -6 18 -12 18 -7 0 -13 11
-13 25 0 17 6 25 17 25 9 0 19 6 22 13 4 6 4 2 2 -11 -3 -17 -1 -22 10 -18 7
3 13 2 13 -2 -4 -27 3 -44 16 -38 9 3 15 0 15 -9 0 -9 6 -12 17 -8 12 5 15 2
11 -9 -8 -21 42 -15 58 6 6 9 14 13 17 9 4 -3 7 1 7 10 0 10 3 17 8 17 4 0 12
11 19 25 6 14 8 23 3 20 -9 -6 -24 44 -15 53 3 3 5 -2 5 -12 0 -9 5 -14 10
-11 6 4 8 10 5 15 -3 4 2 13 10 20 12 10 18 6 35 -22 13 -22 20 -27 20 -15 0
10 -9 27 -20 39 -22 24 -26 43 -9 54 8 4 7 9 -2 14 -8 6 0 11 25 15 29 6 36
11 31 24 -5 12 -3 13 6 4 6 -6 8 -16 5 -22z m664 -13 c0 -23 -3 -29 -9 -19 -7
11 -11 9 -20 -8 -7 -11 -16 -21 -22 -21 -6 0 -5 6 3 15 30 33 38 45 38 55 0 5
2 10 5 10 3 0 5 -15 5 -32z m-615 12 c3 -5 1 -10 -4 -10 -6 0 -11 5 -11 10 0
6 2 10 4 10 3 0 8 -4 11 -10z m5 -41 c-6 -10 -16 -21 -23 -25 -9 -5 -9 -4 1 7
18 20 14 31 -7 19 -20 -10 -41 4 -27 17 3 4 6 1 6 -6 0 -7 5 -9 10 -6 6 4 8
10 5 14 -2 5 7 6 20 3 20 -3 23 -7 15 -23z m37 -8 c0 -11 -6 -17 -14 -14 -16
6 -17 20 0 26 6 3 13 6 14 6 1 1 1 -8 0 -18z m493 -21 c0 -12 -7 -20 -17 -20
-26 -1 -58 -26 -41 -33 9 -4 7 -6 -4 -6 -9 -1 -19 3 -23 9 -3 5 -13 6 -23 3
-13 -5 -15 -3 -5 7 6 7 20 13 30 14 43 5 72 18 66 32 -3 8 0 14 6 14 6 0 11
-9 11 -20z m-5 -40 c3 -5 1 -10 -4 -10 -6 0 -11 5 -11 10 0 6 2 10 4 10 3 0 8
-4 11 -10z m-515 -18 c0 -5 -7 -9 -15 -9 -8 0 -12 4 -9 9 3 4 9 8 15 8 5 0 9
-4 9 -8z m247 -19 c1 -19 -1 -22 -8 -12 -6 10 -9 10 -9 2 0 -7 -4 -13 -9 -13
-5 0 -4 11 2 25 15 32 22 32 24 -2z m-170 -13 c-2 -11 -7 -23 -12 -27 -4 -5
-5 -2 -1 5 4 6 2 12 -4 12 -7 0 -6 5 2 15 17 19 18 19 15 -5z m323 -25 c0 -5
-5 -3 -10 5 -5 8 -10 20 -10 25 0 6 5 3 10 -5 5 -8 10 -19 10 -25z m-257 -5
c3 -11 1 -18 -4 -14 -5 3 -9 12 -9 20 0 20 7 17 13 -6z m63 2 c1 -7 0 -8 -3
-2 -3 8 -9 7 -19 -1 -8 -6 -14 -7 -14 -2 0 24 31 28 36 5z m-496 -12 c0 -5 -9
-6 -20 -3 -11 3 -20 9 -20 13 0 5 9 6 20 3 11 -3 20 -9 20 -13z m528 -5 c-3
-3 -9 2 -12 12 -6 14 -5 15 5 6 7 -7 10 -15 7 -18z m-203 -16 c4 -6 13 -8 19
-6 7 3 18 2 25 -2 9 -6 8 -11 -4 -21 -11 -9 -15 -9 -15 -1 0 7 -5 9 -10 6 -6
-4 -8 -10 -6 -14 3 -4 -5 -8 -16 -8 -20 -2 -20 -1 -5 14 15 15 15 17 -1 29
-10 8 -12 14 -5 14 6 0 15 -5 18 -11z m81 -25 c-4 -10 0 -14 11 -12 9 2 18 -4
20 -12 4 -13 3 -13 -6 0 -6 8 -11 10 -11 4 0 -6 -7 -11 -14 -11 -10 0 -14 10
-13 28 1 15 6 25 10 22 5 -3 6 -11 3 -19z m204 6 c0 -5 -2 -10 -4 -10 -3 0 -8
5 -11 10 -3 6 -1 10 4 10 6 0 11 -4 11 -10z m-90 -14 c0 -2 -8 -10 -17 -17
-16 -13 -17 -12 -4 4 13 16 21 21 21 13z m-149 -33 c-12 -20 -14 -14 -5 12 4
9 9 14 11 11 3 -2 0 -13 -6 -23z m95 -20 c-10 -10 -19 5 -10 18 6 11 8 11 12
0 2 -7 1 -15 -2 -18z m-441 -244 c6 -34 -9 -56 -28 -41 -7 7 -17 9 -20 5 -4
-3 -7 -1 -7 5 0 7 4 12 9 12 5 0 7 10 4 23 -4 21 -3 21 11 -3 l15 -25 1 29 c0
33 9 30 15 -5z m129 -11 c10 31 24 19 18 -15 -2 -16 -2 -25 2 -22 4 4 8 20 8
35 1 25 5 29 30 30 21 1 28 -3 24 -12 -3 -8 -2 -13 2 -13 24 4 22 -4 -7 -25
-22 -16 -28 -26 -19 -30 7 -3 1 -3 -14 0 -22 5 -28 2 -29 -12 -1 -11 -5 -6 -9
11 -7 27 -8 27 -9 6 -2 -44 -13 -19 -25 59 l-6 35 13 -35 c13 -33 14 -34 21
-12z m121 34 c-3 -3 0 -11 7 -19 6 -7 9 -16 6 -19 -3 -2 -12 6 -21 19 -13 20
-13 24 -1 24 8 0 12 -3 9 -5z m115 -27 c0 -5 -5 -3 -10 5 -5 8 -10 20 -10 25
0 6 5 3 10 -5 5 -8 10 -19 10 -25z m-340 -10 c0 -19 -4 -35 -8 -35 -4 0 -6 16
-4 35 2 19 6 35 8 35 2 0 4 -16 4 -35z m-167 9 c-5 -14 -3 -15 16 -5 21 11 22
10 19 -23 -1 -20 -5 -36 -8 -36 -10 0 -40 62 -34 71 9 15 14 10 7 -7z m79 -24
c-4 -34 -6 -38 -19 -25 -15 16 -14 45 2 57 18 14 21 9 17 -32z m128 -15 c0
-23 -3 -27 -10 -15 -5 8 -10 29 -10 45 0 23 3 27 10 15 5 -8 10 -28 10 -45z
m29 -14 c2 -42 -11 -14 -15 31 -3 34 -1 38 5 18 5 -14 9 -36 10 -49z m-239 5
c0 -3 -4 -8 -10 -11 -5 -3 -10 -1 -10 4 0 6 5 11 10 11 6 0 10 -2 10 -4z m97
-18 c-3 -8 -6 -5 -6 6 -1 11 2 17 5 13 3 -3 4 -12 1 -19z m1145 -2165 c-7 -3
-19 -11 -26 -19 -8 -8 -22 -14 -32 -14 -10 0 -14 -3 -11 -7 4 -3 0 -15 -10
-25 -23 -26 -3 -22 27 5 14 12 43 33 65 46 l40 23 -35 -31 c-93 -83 -308 -218
-430 -269 -155 -65 -366 -129 -394 -119 -6 2 15 10 46 17 32 7 55 16 53 20 -6
9 23 22 34 16 4 -3 8 4 8 15 2 17 -1 18 -13 9 -11 -10 -14 -9 -14 9 0 11 5 21
11 21 16 0 48 42 49 63 0 9 7 17 15 17 8 0 15 4 15 9 0 5 13 8 29 7 16 -1 29
2 28 7 -1 5 12 14 28 19 28 9 166 72 229 106 16 8 45 14 65 13 32 -1 59 7 156
50 17 7 35 13 42 14 6 0 15 4 19 8 4 4 10 4 13 1 3 -4 0 -9 -7 -11z m-1471
-337 c79 -32 243 -71 234 -56 -3 4 12 2 33 -6 20 -7 76 -13 124 -14 48 0 89
-3 91 -7 7 -11 -165 -6 -253 8 -84 12 -236 59 -290 89 -51 28 -35 24 61 -14z"/>
<path d="M4366 10321 c-3 -5 1 -12 10 -15 22 -8 25 -4 9 11 -8 7 -16 9 -19 4z"/>
<path d="M4630 10310 c0 -5 5 -10 11 -10 5 0 7 5 4 10 -3 6 -8 10 -11 10 -2 0
-4 -4 -4 -10z"/>
<path d="M4520 10296 c0 -2 9 -6 20 -9 11 -3 18 -1 14 4 -5 9 -34 13 -34 5z"/>
<path d="M4670 10290 c-9 -6 -10 -10 -3 -10 6 0 15 5 18 10 8 12 4 12 -15 0z"/>
<path d="M4786 10287 c3 -10 9 -15 12 -12 3 3 0 11 -7 18 -10 9 -11 8 -5 -6z"/>
<path d="M4770 10261 c0 -6 4 -13 10 -16 6 -3 7 1 4 9 -7 18 -14 21 -14 7z"/>
<path d="M4820 10262 c0 -4 10 -13 23 -21 22 -14 22 -14 3 8 -20 22 -26 25
-26 13z"/>
<path d="M4396 10248 c3 -5 10 -6 15 -3 13 9 11 12 -6 12 -8 0 -12 -4 -9 -9z"/>
<path d="M4310 10246 c0 -2 7 -7 16 -10 8 -3 12 -2 9 4 -6 10 -25 14 -25 6z"/>
<path d="M4260 10219 c0 -5 5 -7 10 -4 6 3 10 8 10 11 0 2 -4 4 -10 4 -5 0
-10 -5 -10 -11z"/>
<path d="M4900 10215 c0 -8 2 -15 4 -15 2 0 6 7 10 15 3 8 1 15 -4 15 -6 0
-10 -7 -10 -15z"/>
<path d="M4106 10195 c-17 -13 -18 -17 -6 -28 7 -7 10 -7 7 -1 -8 14 17 37 28
26 5 -4 5 -1 1 6 -9 15 -7 15 -30 -3z"/>
<path d="M4159 10190 c-13 -10 -19 -19 -13 -20 6 0 19 9 29 20 23 26 14 26
-16 0z"/>
<path d="M4179 10168 c-7 -13 -17 -26 -23 -30 -8 -5 -7 -8 1 -8 7 0 18 10 24
23 7 12 17 25 23 29 8 5 7 8 -1 8 -7 0 -18 -10 -24 -22z"/>
<path d="M4216 10173 c-6 -14 -5 -15 5 -6 7 7 10 15 7 18 -3 3 -9 -2 -12 -12z"/>
<path d="M4285 10179 c-4 -6 -5 -12 -2 -15 2 -3 7 2 10 11 7 17 1 20 -8 4z"/>
<path d="M4455 10140 c3 -5 8 -10 11 -10 2 0 4 5 4 10 0 6 -5 10 -11 10 -5 0
-7 -4 -4 -10z"/>
<path d="M4720 10146 c0 -2 9 -6 20 -9 11 -3 18 -1 14 4 -5 9 -34 13 -34 5z"/>
<path d="M4035 10129 c-4 -6 -5 -12 -2 -15 2 -3 7 2 10 11 7 17 1 20 -8 4z"/>
<path d="M4326 10123 c-6 -14 -5 -15 5 -6 7 7 10 15 7 18 -3 3 -9 -2 -12 -12z"/>
<path d="M4125 10120 c-3 -5 -1 -10 4 -10 6 0 11 5 11 10 0 6 -2 10 -4 10 -3
0 -8 -4 -11 -10z"/>
<path d="M4497 10115 c3 -8 9 -12 14 -9 12 7 11 11 -5 17 -10 4 -13 1 -9 -8z"/>
<path d="M4535 10120 c3 -5 8 -10 11 -10 2 0 4 5 4 10 0 6 -5 10 -11 10 -5 0
-7 -4 -4 -10z"/>
<path d="M4055 10110 c-3 -5 -1 -10 4 -10 6 0 11 5 11 10 0 6 -2 10 -4 10 -3
0 -8 -4 -11 -10z"/>
<path d="M4150 10105 c-7 -9 -11 -17 -9 -20 3 -2 10 5 17 15 14 24 10 26 -8 5z"/>
<path d="M4460 10109 c0 -5 5 -7 10 -4 6 3 10 8 10 11 0 2 -4 4 -10 4 -5 0
-10 -5 -10 -11z"/>
<path d="M4100 10100 c0 -5 5 -10 11 -10 5 0 7 5 4 10 -3 6 -8 10 -11 10 -2 0
-4 -4 -4 -10z"/>
<path d="M4598 10099 c-10 -5 -33 -10 -53 -11 -52 -2 -32 -13 24 -13 36 0 47
3 43 13 -3 10 3 11 24 6 16 -4 26 -3 21 2 -12 12 -40 14 -59 3z"/>
<path d="M4780 10100 c0 -5 5 -10 11 -10 5 0 7 5 4 10 -3 6 -8 10 -11 10 -2 0
-4 -4 -4 -10z"/>
<path d="M4185 10090 c3 -5 12 -7 20 -3 21 7 19 13 -6 13 -11 0 -18 -4 -14
-10z"/>
<path d="M4286 10083 c-6 -14 -5 -15 5 -6 7 7 10 15 7 18 -3 3 -9 -2 -12 -12z"/>
<path d="M4036 10061 c10 -10 25 -16 33 -13 9 4 6 9 -10 18 -35 19 -46 17 -23
-5z"/>
<path d="M4096 10065 c-3 -8 -1 -15 4 -15 6 0 10 7 10 15 0 8 -2 15 -4 15 -2
0 -6 -7 -10 -15z"/>
<path d="M4170 10056 c0 -8 4 -17 8 -20 4 -2 8 4 8 15 0 10 -4 19 -8 19 -4 0
-8 -6 -8 -14z"/>
<path d="M4250 10059 c0 -5 5 -7 10 -4 6 3 10 8 10 11 0 2 -4 4 -10 4 -5 0
-10 -5 -10 -11z"/>
<path d="M4365 10059 c-26 -7 -24 -7 13 -5 23 2 46 6 49 10 8 8 -24 6 -62 -5z"/>
<path d="M4658 10063 c6 -2 18 -2 25 0 6 3 1 5 -13 5 -14 0 -19 -2 -12 -5z"/>
<path d="M4700 10061 c0 -11 82 -30 123 -29 45 1 20 13 -33 15 -26 1 -58 6
-69 13 -12 6 -21 7 -21 1z"/>
<path d="M4778 10063 c7 -3 16 -2 19 1 4 3 -2 6 -13 5 -11 0 -14 -3 -6 -6z"/>
<path d="M4133 10045 c-7 -8 -9 -16 -4 -19 5 -3 12 1 15 10 8 22 4 25 -11 9z"/>
<path d="M4436 10044 c-3 -7 5 -9 20 -6 33 6 38 17 8 17 -13 0 -26 -5 -28 -11z"/>
<path d="M4555 10043 l-20 -16 20 8 c11 4 34 7 50 7 25 -1 27 0 10 8 -29 12
-37 11 -60 -7z"/>
<path d="M4897 10043 c3 -8 -4 -13 -18 -14 -16 -1 -18 -3 -7 -6 9 -2 33 4 53
15 l37 19 -35 -1 c-23 -1 -33 -5 -30 -13z"/>
<path d="M4510 10040 c-9 -6 -10 -10 -3 -10 6 0 15 5 18 10 8 12 4 12 -15 0z"/>
<path d="M4090 10026 c0 -8 -9 -20 -20 -26 -25 -13 -27 5 -2 19 15 9 15 10 1
11 -19 0 -31 -23 -23 -44 3 -8 13 -12 25 -9 10 3 16 9 13 14 -3 5 -1 9 4 9 14
0 23 28 12 35 -6 4 -10 -1 -10 -9z"/>
<path d="M4658 10033 c6 -2 18 -2 25 0 6 3 1 5 -13 5 -14 0 -19 -2 -12 -5z"/>
<path d="M4945 10029 c-4 -6 -5 -12 -2 -15 2 -3 7 2 10 11 7 17 1 20 -8 4z"/>
<path d="M4340 10020 c-18 -12 -2 -12 25 0 13 6 15 9 5 9 -8 0 -22 -4 -30 -9z"/>
<path d="M5039 9998 c-15 -15 -25 -29 -22 -31 6 -7 56 41 51 50 -1 4 -15 -4
-29 -19z"/>
<path d="M4153 10013 c-15 -5 -17 -23 -4 -23 5 0 11 7 15 15 3 8 4 15 3 14 -1
0 -8 -3 -14 -6z"/>
<path d="M4207 10013 c-4 -3 -7 -12 -7 -20 0 -14 55 -19 64 -5 3 5 -9 6 -26 4
-26 -4 -30 -2 -25 12 7 17 5 20 -6 9z"/>
<path d="M4433 10006 c-13 -6 -23 -14 -23 -19 0 -7 17 0 50 23 20 13 1 11 -27
-4z"/>
<path d="M4558 10013 c6 -2 18 -2 25 0 6 3 1 5 -13 5 -14 0 -19 -2 -12 -5z"/>
<path d="M4662 9994 c10 -10 20 -16 22 -13 3 3 -5 11 -17 18 -21 13 -21 12 -5
-5z"/>
<path d="M4880 9995 c0 -8 4 -15 8 -15 5 0 9 7 9 15 0 8 -4 15 -9 15 -4 0 -8
-7 -8 -15z"/>
<path d="M4107 9993 c-4 -3 -7 -15 -7 -26 0 -17 -2 -18 -17 -6 -16 12 -17 12
-6 -2 7 -9 10 -19 6 -22 -3 -4 -2 -7 4 -7 12 0 25 25 28 53 2 19 1 20 -8 10z"/>
<path d="M4345 9990 c-3 -6 1 -7 9 -4 18 7 21 14 7 14 -6 0 -13 -4 -16 -10z"/>
<path d="M4618 9993 c7 -3 16 -2 19 1 4 3 -2 6 -13 5 -11 0 -14 -3 -6 -6z"/>
<path d="M4738 9993 c7 -3 16 -2 19 1 4 3 -2 6 -13 5 -11 0 -14 -3 -6 -6z"/>
<path d="M4830 9977 c-11 -19 -11 -20 1 -11 8 6 21 13 28 16 13 4 13 5 0 10
-9 4 -21 -2 -29 -15z"/>
<path d="M4292 9978 c-7 -9 -6 -17 3 -25 8 -7 16 -9 20 -4 3 5 -1 12 -7 14
-10 4 -9 8 2 16 8 6 10 11 4 11 -6 0 -16 -6 -22 -12z"/>
<path d="M4790 9975 c-10 -12 -9 -15 4 -15 10 0 15 4 12 9 -4 5 0 12 6 14 8 4
9 6 2 6 -6 1 -17 -6 -24 -14z"/>
<path d="M4126 9964 c-8 -20 -8 -24 2 -24 4 0 8 9 9 20 2 24 -3 26 -11 4z"/>
<path d="M4388 9963 c7 -3 16 -2 19 1 4 3 -2 6 -13 5 -11 0 -14 -3 -6 -6z"/>
<path d="M4850 9955 c-9 -10 -9 -15 -1 -15 6 0 11 4 11 9 0 5 8 12 18 14 14 4
14 5 1 6 -9 0 -22 -6 -29 -14z"/>
<path d="M4904 9956 c-3 -8 -1 -22 4 -31 8 -16 9 -16 15 -1 4 11 3 15 -4 10
-8 -4 -9 1 -4 15 7 23 -2 29 -11 7z"/>
<path d="M4160 9950 c-8 -5 -12 -12 -9 -15 4 -3 12 1 19 10 14 17 11 19 -10 5z"/>
<path d="M4450 9940 c0 -5 5 -10 11 -10 5 0 7 5 4 10 -3 6 -8 10 -11 10 -2 0
-4 -4 -4 -10z"/>
<path d="M4860 9928 c-12 -8 -11 -9 4 -4 13 5 17 2 12 -9 -3 -8 -1 -15 4 -15
12 0 13 27 2 34 -4 2 -14 0 -22 -6z"/>
<path d="M4810 9921 c0 -6 4 -13 10 -16 6 -3 7 1 4 9 -7 18 -14 21 -14 7z"/>
<path d="M4085 9900 c22 -24 21 -24 28 -6 4 10 1 13 -9 9 -7 -3 -14 0 -14 6 0
6 -5 11 -12 11 -6 0 -3 -9 7 -20z"/>
<path d="M4934 9908 c-4 -6 -3 -8 4 -4 6 3 13 2 17 -4 6 -10 -7 -14 -32 -11
-7 1 -13 -7 -13 -18 0 -11 -5 -23 -11 -27 -8 -5 -7 -9 1 -14 7 -4 10 -15 7
-24 -5 -13 -11 -14 -33 -6 -40 16 -39 6 2 -12 l35 -16 6 29 c3 16 9 29 14 29
5 0 9 11 9 25 0 16 6 25 15 25 8 0 15 9 15 20 0 22 -24 27 -36 8z m-12 -70
c-7 -7 -12 -8 -12 -2 0 14 12 26 19 19 2 -3 -1 -11 -7 -17z"/>
<path d="M3970 9900 c-13 -8 -13 -10 1 -10 11 0 19 -12 23 -35 4 -19 11 -35
16 -35 13 0 13 13 0 26 -5 5 -11 22 -12 37 -3 30 -6 31 -28 17z"/>
<path d="M4260 9900 c-9 -6 -10 -10 -3 -10 6 0 15 5 18 10 8 12 4 12 -15 0z"/>
<path d="M4840 9899 c0 -5 5 -7 10 -4 6 3 10 8 10 11 0 2 -4 4 -10 4 -5 0 -10
-5 -10 -11z"/>
<path d="M4134 9889 c-4 -7 -3 -9 4 -5 5 3 13 0 15 -6 4 -9 6 -10 6 -1 1 17
-16 25 -25 12z"/>
<path d="M4881 9874 c0 -11 3 -14 6 -6 3 7 2 16 -1 19 -3 4 -6 -2 -5 -13z"/>
<path d="M4850 9870 c0 -7 -8 -9 -20 -5 -19 6 -66 -12 -57 -22 3 -2 14 1 25 8
15 9 24 10 34 2 9 -8 16 -7 25 2 8 9 9 16 3 20 -6 3 -10 1 -10 -5z"/>
<path d="M4077 9859 c-10 -6 -28 -9 -38 -6 -13 3 -19 1 -16 -6 2 -7 10 -12 18
-12 8 0 17 -4 21 -10 5 -6 8 -3 8 7 0 10 5 15 13 12 8 -3 14 2 14 11 0 8 -1
15 -1 15 -1 0 -9 -5 -19 -11z"/>
<path d="M4639 9853 c-12 -16 -12 -17 1 -7 8 6 22 14 30 17 13 5 12 6 -1 6 -9
1 -23 -7 -30 -16z"/>
<path d="M4966 9863 c5 -5 12 -12 16 -18 4 -6 8 -2 8 8 0 9 -7 17 -17 17 -9 0
-12 -3 -7 -7z"/>
<path d="M3870 9849 c0 -5 5 -7 10 -4 6 3 10 8 10 11 0 2 -4 4 -10 4 -5 0 -10
-5 -10 -11z"/>
<path d="M3908 9849 c-10 -5 -18 -15 -18 -20 0 -6 7 -3 16 5 8 9 19 14 24 11
5 -3 11 -1 15 5 8 13 -15 12 -37 -1z"/>
<path d="M4385 9849 c-4 -6 -5 -12 -2 -15 2 -3 7 2 10 11 7 17 1 20 -8 4z"/>
<path d="M4153 9824 c0 -17 2 -22 7 -13 5 6 6 18 3 26 -8 19 -10 16 -10 -13z"/>
<path d="M4246 9842 c-2 -4 4 -8 14 -8 10 0 16 4 14 8 -3 4 -9 8 -14 8 -5 0
-11 -4 -14 -8z"/>
<path d="M4535 9840 c-13 -6 -15 -9 -5 -9 8 0 22 4 30 9 18 12 2 12 -25 0z"/>
<path d="M3928 9823 c6 -2 18 -2 25 0 6 3 1 5 -13 5 -14 0 -19 -2 -12 -5z"/>
<path d="M4585 9820 c-16 -7 -17 -9 -3 -9 9 -1 20 4 23 9 7 11 7 11 -20 0z"/>
<path d="M4640 9826 c0 -2 7 -7 16 -10 8 -3 12 -2 9 4 -6 10 -25 14 -25 6z"/>
<path d="M4870 9820 c0 -6 7 -10 15 -10 8 0 15 2 15 4 0 2 -7 6 -15 10 -8 3
-15 1 -15 -4z"/>
<path d="M4247 9813 c-4 -3 -7 -11 -7 -17 0 -6 5 -5 12 2 6 6 9 14 7 17 -3 3
-9 2 -12 -2z"/>
<path d="M4796 9811 c-4 -5 3 -7 14 -4 23 6 26 13 6 13 -8 0 -17 -4 -20 -9z"/>
<path d="M4050 9806 c0 -2 7 -7 16 -10 8 -3 12 -2 9 4 -6 10 -25 14 -25 6z"/>
<path d="M4221 9788 c0 -10 -5 -18 -11 -18 -5 0 -10 -7 -10 -16 0 -14 1 -14
16 0 8 9 13 24 11 34 -4 16 -5 16 -6 0z"/>
<path d="M4325 9790 c-3 -6 1 -7 9 -4 9 3 16 1 16 -6 0 -6 5 -8 11 -4 8 4 7 9
-2 15 -18 11 -26 11 -34 -1z"/>
<path d="M4385 9789 c-4 -6 -5 -12 -2 -15 2 -3 7 2 10 11 7 17 1 20 -8 4z"/>
<path d="M4596 9792 c-3 -5 8 -6 25 -4 16 2 29 6 29 8 0 8 -49 4 -54 -4z"/>
<path d="M4810 9789 c0 -5 5 -7 10 -4 6 3 10 8 10 11 0 2 -4 4 -10 4 -5 0 -10
-5 -10 -11z"/>
<path d="M4030 9786 c0 -2 7 -7 16 -10 8 -3 12 -2 9 4 -6 10 -25 14 -25 6z"/>
<path d="M4555 9780 c-3 -6 1 -7 9 -4 18 7 21 14 7 14 -6 0 -13 -4 -16 -10z"/>
<path d="M4245 9770 c-3 -5 -1 -10 4 -10 6 0 11 5 11 10 0 6 -2 10 -4 10 -3 0
-8 -4 -11 -10z"/>
<path d="M4865 9770 c3 -5 11 -10 16 -10 6 0 7 5 4 10 -3 6 -11 10 -16 10 -6
0 -7 -4 -4 -10z"/>
<path d="M4010 9748 c0 -5 10 -6 22 -3 15 6 20 4 16 -6 -3 -8 -2 -23 3 -34 6
-15 7 -11 6 15 -2 28 -7 35 -25 36 -12 1 -22 -3 -22 -8z"/>
<path d="M4140 9752 c0 -5 7 -9 15 -9 8 0 12 4 9 9 -3 4 -9 8 -15 8 -5 0 -9
-4 -9 -8z"/>
<path d="M4495 9739 c-39 -24 -21 -24 25 1 19 11 28 19 20 19 -8 0 -28 -9 -45
-20z"/>
<path d="M4906 9747 c3 -10 9 -15 12 -12 3 3 0 11 -7 18 -10 9 -11 8 -5 -6z"/>
<path d="M4942 9746 c7 -8 15 -12 17 -11 5 6 -10 25 -20 25 -5 0 -4 -6 3 -14z"/>
<path d="M4445 9740 c-3 -5 -2 -10 4 -10 5 0 13 5 16 10 3 6 2 10 -4 10 -5 0
-13 -4 -16 -10z"/>
<path d="M4618 9743 c7 -3 16 -2 19 1 4 3 -2 6 -13 5 -11 0 -14 -3 -6 -6z"/>
<path d="M4366 9725 c-11 -8 -16 -15 -10 -15 5 0 18 7 28 15 11 8 16 15 10 15
-5 0 -18 -7 -28 -15z"/>
<path d="M4892 9715 c6 -14 13 -24 14 -22 6 6 -9 47 -17 47 -5 0 -3 -11 3 -25z"/>
<path d="M3904 9705 c-9 -14 -20 -23 -24 -20 -5 3 -10 -3 -13 -12 -3 -15 -6
-14 -15 7 -6 14 -11 18 -11 10 0 -8 4 -22 9 -30 6 -10 4 -20 -7 -32 -9 -10
-12 -18 -7 -18 5 0 19 15 31 33 12 17 32 44 43 60 12 15 19 27 16 27 -3 0 -13
-11 -22 -25z"/>
<path d="M4504 9714 c-18 -14 -18 -15 4 -4 12 6 22 13 22 15 0 8 -5 6 -26 -11z"/>
<path d="M4617 9716 c-3 -8 2 -16 14 -19 17 -5 18 -3 7 11 -7 9 -13 18 -14 20
-1 2 -4 -4 -7 -12z"/>
<path d="M4255 9710 c3 -5 8 -10 11 -10 2 0 4 5 4 10 0 6 -5 10 -11 10 -5 0
-7 -4 -4 -10z"/>
<path d="M4565 9711 c-6 -11 13 -26 22 -17 4 3 1 6 -6 6 -7 0 -9 5 -6 10 3 6
4 10 1 10 -3 0 -7 -4 -11 -9z"/>
<path d="M3925 9699 c-4 -6 -5 -12 -2 -15 2 -3 7 2 10 11 7 17 1 20 -8 4z"/>
<path d="M4190 9703 c8 -4 21 -14 28 -25 7 -10 18 -18 24 -18 7 0 3 7 -8 15
-15 11 -16 15 -4 15 19 2 -18 19 -40 19 -13 -1 -13 -1 0 -6z"/>
<path d="M4380 9700 c-9 -6 -10 -10 -3 -10 6 0 15 5 18 10 8 12 4 12 -15 0z"/>
<path d="M4445 9690 c3 -5 8 -10 11 -10 2 0 4 5 4 10 0 6 -5 10 -11 10 -5 0
-7 -4 -4 -10z"/>
<path d="M4920 9696 c0 -7 40 -14 44 -7 3 4 -6 8 -20 9 -13 1 -24 0 -24 -2z"/>
<path d="M4358 9673 c7 -3 16 -2 19 1 4 3 -2 6 -13 5 -11 0 -14 -3 -6 -6z"/>
<path d="M5040 9671 c0 -5 5 -13 10 -16 6 -3 10 -2 10 4 0 5 -4 13 -10 16 -5
3 -10 2 -10 -4z"/>
<path d="M4416 9655 c-11 -8 -16 -15 -10 -15 5 0 18 7 28 15 11 8 16 15 10 15
-5 0 -18 -7 -28 -15z"/>
<path d="M4215 9643 c3 -12 1 -24 -5 -28 -5 -3 -10 -11 -10 -16 0 -6 7 -3 16
6 13 13 14 20 5 38 l-11 22 5 -22z"/>
<path d="M4473 9649 c-18 -5 -34 -13 -37 -18 -5 -7 26 1 84 22 26 10 -11 6
-47 -4z"/>
<path d="M4885 9650 c3 -5 8 -10 11 -10 2 0 4 5 4 10 0 6 -5 10 -11 10 -5 0
-7 -4 -4 -10z"/>
<path d="M3775 9640 c-3 -5 -1 -10 4 -10 6 0 11 5 11 10 0 6 -2 10 -4 10 -3 0
-8 -4 -11 -10z"/>
<path d="M4275 9640 c-3 -5 -1 -10 4 -10 6 0 11 5 11 10 0 6 -2 10 -4 10 -3 0
-8 -4 -11 -10z"/>
<path d="M4305 9640 c3 -5 8 -10 11 -10 2 0 4 5 4 10 0 6 -5 10 -11 10 -5 0
-7 -4 -4 -10z"/>
<path d="M4342 9638 c-7 -7 -12 -16 -12 -21 0 -5 7 -1 16 8 9 9 14 18 12 20
-2 3 -10 -1 -16 -7z"/>
<path d="M4936 9637 c3 -10 9 -15 12 -12 3 3 0 11 -7 18 -10 9 -11 8 -5 -6z"/>
<path d="M4377 9626 c-4 -10 -1 -13 8 -9 8 3 12 9 9 14 -7 12 -11 11 -17 -5z"/>
<path d="M5043 9626 c2 -21 47 -56 47 -37 0 6 -7 11 -15 11 -9 0 -20 10 -25
23 -8 17 -9 17 -7 3z"/>
<path d="M5066 9625 c4 -8 11 -15 16 -15 6 0 5 6 -2 15 -7 8 -14 15 -16 15 -2
0 -1 -7 2 -15z"/>
<path d="M4399 9593 c-13 -16 -12 -17 4 -4 9 7 17 15 17 17 0 8 -8 3 -21 -13z"/>
<path d="M3845 9590 c3 -5 8 -10 11 -10 2 0 4 5 4 10 0 6 -5 10 -11 10 -5 0
-7 -4 -4 -10z"/>
<path d="M3889 9577 c11 -13 17 -15 28 -6 7 7 11 15 7 18 -4 3 -9 0 -11 -7 -4
-10 -8 -10 -21 0 -15 12 -16 11 -3 -5z"/>
<path d="M4294 9565 c-4 -14 -4 -29 0 -32 3 -4 6 3 6 13 0 11 5 25 12 32 9 9
9 12 0 12 -6 0 -14 -11 -18 -25z"/>
<path d="M5133 9573 c-7 -3 -13 -9 -13 -14 0 -4 7 -6 15 -3 8 4 15 2 15 -3 0
-5 7 -10 15 -10 8 0 15 3 15 6 0 11 -35 28 -47 24z"/>
<path d="M4315 9560 c-3 -5 -2 -10 4 -10 5 0 13 5 16 10 3 6 2 10 -4 10 -5 0
-13 -4 -16 -10z"/>
<path d="M4373 9555 c0 -8 4 -15 9 -15 4 0 8 7 8 15 0 8 -4 15 -8 15 -5 0 -9
-7 -9 -15z"/>
<path d="M3870 9535 c-11 -13 -10 -14 4 -9 9 3 16 10 16 15 0 13 -6 11 -20 -6z"/>
<path d="M4691 9534 c0 -11 3 -14 6 -6 3 7 2 16 -1 19 -3 4 -6 -2 -5 -13z"/>
<path d="M3810 9525 c0 -9 6 -12 15 -9 8 4 12 10 9 15 -8 14 -24 10 -24 -6z"/>
<path d="M4200 9536 c0 -2 7 -9 15 -16 9 -7 15 -8 15 -2 0 5 -7 12 -15 16 -8
3 -15 4 -15 2z"/>
<path d="M4251 9514 c0 -11 3 -14 6 -6 3 7 2 16 -1 19 -3 4 -6 -2 -5 -13z"/>
<path d="M4435 9510 c-3 -5 -1 -10 4 -10 6 0 11 5 11 10 0 6 -2 10 -4 10 -3 0
-8 -4 -11 -10z"/>
<path d="M4018 9493 c7 -3 16 -2 19 1 4 3 -2 6 -13 5 -11 0 -14 -3 -6 -6z"/>
<path d="M4559 9487 c18 -22 8 -33 -12 -13 -13 14 -15 13 -20 -3 -3 -14 2 -18
24 -19 33 -1 38 18 12 39 -16 13 -17 12 -4 -4z"/>
<path d="M3880 9479 c0 -5 5 -7 10 -4 6 3 10 8 10 11 0 2 -4 4 -10 4 -5 0 -10
-5 -10 -11z"/>
<path d="M4261 9480 c0 -8 6 -24 14 -34 19 -25 19 -9 0 24 -8 14 -14 19 -14
10z"/>
<path d="M4439 9468 c4 -12 13 -24 19 -26 7 -2 7 5 -1 22 -15 32 -30 35 -18 4z"/>
<path d="M5050 9486 c0 -2 7 -9 15 -16 9 -7 15 -8 15 -2 0 5 -7 12 -15 16 -8
3 -15 4 -15 2z"/>
<path d="M5107 9483 c-10 -9 -9 -23 1 -23 5 0 9 7 9 15 0 17 -1 18 -10 8z"/>
<path d="M5178 9483 c7 -3 16 -2 19 1 4 3 -2 6 -13 5 -11 0 -14 -3 -6 -6z"/>
<path d="M4075 9469 c-4 -6 -5 -12 -2 -15 2 -3 7 2 10 11 7 17 1 20 -8 4z"/>
<path d="M4470 9470 c0 -5 5 -10 11 -10 5 0 7 5 4 10 -3 6 -8 10 -11 10 -2 0
-4 -4 -4 -10z"/>
<path d="M4767 9459 c-9 -6 -15 -14 -12 -20 9 -14 25 -11 25 6 0 8 5 15 11 15
5 0 8 -4 5 -9 -3 -4 6 -6 20 -3 29 5 28 7 -6 15 -14 3 -33 1 -43 -4z"/>
<path d="M4958 9453 c7 -3 16 -2 19 1 4 3 -2 6 -13 5 -11 0 -14 -3 -6 -6z"/>
<path d="M4300 9430 c0 -5 5 -10 11 -10 5 0 7 5 4 10 -3 6 -8 10 -11 10 -2 0
-4 -4 -4 -10z"/>
<path d="M3940 10180 c0 -5 5 -10 11 -10 5 0 7 5 4 10 -3 6 -8 10 -11 10 -2 0
-4 -4 -4 -10z"/>
<path d="M3988 10153 c-9 -10 -19 -29 -23 -43 -9 -30 -6 -27 24 23 24 40 24
48 -1 20z"/>
<path d="M4960 10169 c0 -5 5 -7 10 -4 6 3 10 8 10 11 0 2 -4 4 -10 4 -5 0
-10 -5 -10 -11z"/>
<path d="M5135 9919 c-4 -6 -5 -12 -2 -15 2 -3 7 2 10 11 7 17 1 20 -8 4z"/>
<path d="M4295 8695 c21 -8 41 -12 44 -10 5 6 -47 25 -67 25 -9 -1 1 -7 23
-15z"/>
<path d="M4285 8640 c4 -6 11 -8 16 -5 14 9 11 15 -7 15 -8 0 -12 -5 -9 -10z"/>
<path d="M4325 8630 c-3 -6 1 -7 9 -4 18 7 21 14 7 14 -6 0 -13 -4 -16 -10z"/>
<path d="M4248 8583 c6 -2 18 -2 25 0 6 3 1 5 -13 5 -14 0 -19 -2 -12 -5z"/>
<path d="M4200 8429 c0 -5 5 -7 10 -4 6 3 10 8 10 11 0 2 -4 4 -10 4 -5 0 -10
-5 -10 -11z"/>
<path d="M4290 8348 c0 -9 5 -20 10 -23 13 -8 13 5 0 25 -8 13 -10 13 -10 -2z"/>
<path d="M4351 7894 c0 -11 3 -14 6 -6 3 7 2 16 -1 19 -3 4 -6 -2 -5 -13z"/>
<path d="M4853 7736 c3 -7 0 -19 -6 -25 -8 -8 -8 -11 2 -11 11 0 11 -3 1 -15
-7 -8 -16 -13 -20 -10 -5 3 -12 0 -15 -5 -5 -8 -11 -6 -18 4 -8 10 -20 14 -34
10 -32 -9 -29 -23 5 -21 17 1 26 -3 25 -10 -4 -16 14 -17 19 -1 5 13 38 20 38
8 0 -5 -8 -14 -17 -19 -24 -14 -11 -14 24 1 15 6 31 11 36 10 4 -1 7 3 7 9 0
6 -9 9 -20 6 -22 -6 -37 8 -20 18 6 4 7 11 4 17 -5 7 0 9 15 5 15 -3 21 -1 18
6 -3 7 -10 11 -16 9 -7 -1 -10 2 -6 8 3 6 11 8 16 5 5 -4 9 -1 9 4 0 6 -12 11
-26 11 -18 0 -25 -4 -21 -14z"/>
<path d="M4955 7736 c-39 -22 -77 -56 -62 -56 24 0 27 -28 6 -52 -19 -21 -20
-21 -14 -3 5 15 3 17 -6 8 -6 -6 -8 -16 -5 -22 10 -15 37 -14 34 2 -2 6 2 11
9 10 6 -1 10 8 8 22 -1 13 2 22 7 19 4 -3 19 -7 31 -10 17 -3 23 1 24 17 2 20
1 20 -18 4 -11 -11 -19 -13 -19 -7 0 7 -9 12 -20 12 -13 0 -18 5 -14 15 4 8
12 15 18 15 15 0 53 27 46 33 -3 3 -14 0 -25 -7z"/>
<path d="M4750 7650 l-25 -8 28 -1 c15 -1 27 4 27 9 0 6 -1 10 -2 9 -2 -1 -14
-5 -28 -9z"/>
<path d="M4704 7635 c-5 -12 -3 -20 5 -23 9 -3 9 -8 -1 -20 -12 -16 -11 -16 6
-2 18 14 19 13 14 -1 -5 -13 -2 -16 13 -12 19 5 19 6 -1 20 -11 8 -18 18 -16
22 3 4 1 13 -4 21 -7 12 -10 11 -16 -5z"/>
<path d="M4750 7620 c-8 -5 -10 -10 -5 -10 6 0 17 5 25 10 8 5 11 10 5 10 -5
0 -17 -5 -25 -10z"/>
<path d="M4800 7608 c0 -4 14 -8 30 -8 17 0 30 2 30 4 0 2 -13 6 -30 8 -16 3
-30 1 -30 -4z"/>
<path d="M4844 7581 c3 -4 -6 -19 -19 -31 -14 -13 -25 -27 -25 -32 0 -4 13 6
30 23 25 27 32 49 14 49 -3 0 -3 -4 0 -9z"/>
<path d="M4805 7569 c-11 -17 1 -21 15 -4 8 9 8 15 2 15 -6 0 -14 -5 -17 -11z"/>
<path d="M5030 7570 c0 -5 7 -7 15 -4 8 4 15 8 15 10 0 2 -7 4 -15 4 -8 0 -15
-4 -15 -10z"/>
<path d="M4925 7550 c-7 -12 2 -12 30 0 19 8 19 9 -2 9 -12 1 -25 -3 -28 -9z"/>
<path d="M4890 7529 c0 -5 5 -7 10 -4 6 3 10 8 10 11 0 2 -4 4 -10 4 -5 0 -10
-5 -10 -11z"/>
<path d="M4991 7463 c-8 -14 -11 -15 -11 -3 0 12 -3 11 -11 -3 -6 -10 -8 -21
-5 -24 3 -4 6 -1 6 6 0 7 4 10 9 6 6 -3 15 4 21 15 13 24 5 27 -9 3z"/>
<path d="M4900 7450 c0 -5 5 -10 11 -10 5 0 7 5 4 10 -3 6 -8 10 -11 10 -2 0
-4 -4 -4 -10z"/>
<path d="M4663 7395 c-1 -19 2 -35 6 -35 8 0 7 57 0 65 -3 2 -5 -11 -6 -30z"/>
<path d="M4875 7419 c-4 -6 -5 -12 -2 -15 2 -3 7 2 10 11 7 17 1 20 -8 4z"/>
<path d="M4701 7394 c0 -11 3 -14 6 -6 3 7 2 16 -1 19 -3 4 -6 -2 -5 -13z"/>
<path d="M4905 7400 c3 -5 8 -10 11 -10 2 0 4 5 4 10 0 6 -5 10 -11 10 -5 0
-7 -4 -4 -10z"/>
<path d="M4613 7381 c-7 -10 -9 -22 -6 -25 6 -6 32 23 33 37 0 14 -15 7 -27
-12z"/>
<path d="M4998 7383 c-13 -12 -20 -14 -31 -5 -10 9 -14 9 -14 -2 0 -19 44 -13
65 8 9 9 12 16 6 16 -5 0 -17 -7 -26 -17z"/>
<path d="M4900 7360 c-9 -6 -10 -10 -3 -10 6 0 15 5 18 10 8 12 4 12 -15 0z"/>
<path d="M4923 7343 c-17 -2 -34 -11 -37 -19 -4 -11 -2 -12 14 -4 10 5 25 7
33 4 8 -3 17 2 20 10 4 9 5 15 4 14 -1 0 -16 -3 -34 -5z"/>
<path d="M4715 7330 c-3 -6 1 -7 9 -4 18 7 21 14 7 14 -6 0 -13 -4 -16 -10z"/>
<path d="M4790 7319 c0 -5 5 -7 10 -4 6 3 10 8 10 11 0 2 -4 4 -10 4 -5 0 -10
-5 -10 -11z"/>
<path d="M4751 7294 c0 -11 3 -14 6 -6 3 7 2 16 -1 19 -3 4 -6 -2 -5 -13z"/>
<path d="M4806 7283 c-6 -14 -5 -15 5 -6 7 7 10 15 7 18 -3 3 -9 -2 -12 -12z"/>
<path d="M4425 7220 c-3 -5 1 -10 10 -10 9 0 13 5 10 10 -3 6 -8 10 -10 10 -2
0 -7 -4 -10 -10z"/>
<path d="M4394 6825 c3 -21 16 -31 16 -12 0 9 -4 18 -9 21 -5 4 -8 -1 -7 -9z"/>
<path d="M4085 6810 c3 -5 8 -10 11 -10 2 0 4 5 4 10 0 6 -5 10 -11 10 -5 0
-7 -4 -4 -10z"/>
<path d="M5210 4550 c-9 -6 -10 -10 -3 -10 6 0 15 5 18 10 8 12 4 12 -15 0z"/>
</g>
</svg>
